<svg width="24" height="24" viewBox="0 0 24 24" fill="none" xmlns="http://www.w3.org/2000/svg">
<path d="M1 12H7.5" stroke="#222222" stroke-width="1.5"/>
<path d="M16.5 12H23" stroke="#222222" stroke-width="1.5"/>
<path d="M12 14C13.1046 14 14 13.1046 14 12C14 10.8954 13.1046 10 12 10C10.8954 10 10 10.8954 10 12C10 13.1046 10.8954 14 12 14Z" stroke="#222222" stroke-width="1.5"/>
<path d="M8.5 4H23" stroke="#222222" stroke-width="1.5"/>
<path d="M4 6C5.10457 6 6 5.10457 6 4C6 2.89543 5.10457 2 4 2C2.89543 2 2 2.89543 2 4C2 5.10457 2.89543 6 4 6Z" stroke="#222222" stroke-width="1.5"/>
<path d="M1 20H15.5" stroke="#222222" stroke-width="1.5"/>
<path d="M20 22C21.1046 22 22 21.1046 22 20C22 18.8954 21.1046 18 20 18C18.8954 18 18 18.8954 18 20C18 21.1046 18.8954 22 20 22Z" stroke="#222222" stroke-width="1.5"/>
</svg>
